<svg xmlns="http://www.w3.org/2000/svg" height="800" width="1200" viewBox="-28.913385 -15 250.58267 90"><path d="M111.2002 16.5991l1.7744-.391 2.2803-.2447 2.914.2446c.8868.0488 1.5196.3911 1.8995.7822.2539.3423.5068.734.6338 1.3203v1.565l-.7598 4.6465c-.254.538-.254.978-.254 1.2226l.254 1.0274h-4.0547l-.253-.5381V25.5c-.6337.538-1.2675.8809-1.9003 1.125-.6338.2446-1.3936.3911-2.5342.3911-1.3936 0-2.2803-.2934-2.913-.8799-.6339-.5869-.8868-1.2226-.6339-2.103.253-.8315.3799-1.4673 1.0137-1.9565.6338-.587 1.7734-.978 3.04-1.2227l3.294-.6846 1.5205-.3916c.253-.5864.253-.8799 0-1.0757-.253-.2446-.6338-.2934-1.0137-.2934-.6328 0-1.2666.0488-1.7734.2934-.127.1958-.6338.4893-.7598.9292l-4.0547-.4399c.254-.6362.6338-1.125 1.0137-1.5161l1.2666-1.0762zm-4.8135 3.5703l-1.2676 6.6026h-4.1797l1.0128-6.0157c.2538-.4892.2538-.831 0-1.0761-.253-.3911-.38-.5376-1.0128-.5376-.5068 0-.8876.1465-1.2675.5376-.253.3427-.5069.9292-.6338 1.6626l-1.1397 5.4292h-4.1806l1.0132-5.771c.2534-.4893.2534-.8316 0-.978 0-.2452 0-.4893-.1265-.6363l-.8867-.2441c-.3804 0-.8867.1465-1.2671.5376-.3799.3427-.6338.9292-.8867 1.7119l-1.0137 5.3799h-4.1807l2.0274-10.564h4.0537l-.3799 1.5161c.6333-.6357 1.3936-1.125 2.0269-1.3696.6333-.2441 1.2666-.3911 2.1538-.3911.8867 0 1.52.147 1.8999.4887.6338.2447.8867.734 1.0136 1.272.8868-.6357 1.5206-1.125 2.1534-1.3696.6338-.2441 1.2675-.3911 2.1543-.3911 1.0136 0 1.9004.2934 2.5332 1.0268.6338.685.6338 1.712.3808 3.1792zm9.7549 1.6626l-1.9004.4893c-.8867.2446-1.5205.3911-1.7734.6357l-.3809.7334c-.253.3428 0 .5874.254.8316.1269.147.3798.2446.7597.2446.6338 0 1.1406-.0977 1.5205-.3423.3799-.2446.8867-.4892 1.0137-.7339.2529-.3418.2529-.7334.5068-1.3203v-.538zm5.8271 4.94l1.9004-10.564h4.0547l-.3808 1.7608c.6338-.734 1.3945-1.2227 2.0273-1.5167.6338-.3417 1.5205-.4887 2.4072-.4887 1.0137 0 1.9004.2934 2.5342 1.0268.6328.685.6328 1.712.3799 3.1304l-1.2676 6.6514h-4.1806l1.0136-5.771c.254-.6363 0-1.1255-.2529-1.4673-.127-.2446-.3799-.3911-.7607-.3911-.6329 0-1.1397.1465-1.5196.5376-.3808.4404-.6338 1.0761-.8877 2.0542l-.7597 5.0376h-4.3077zm65.1182 11.061c-.1309.1914-.2969.3672-.5068.5293-.6338.4902-1.2666.7344-2.2803.7344s-1.6475-.2442-2.2803-.6367c-.6338-.4395-1.1406-.9278-1.2676-1.6621l1.6475-.3907c.253.3907.3799.6348.8867.879.127.246.6338.3437 1.2666.3437.127 0 .6338-.0977.7608-.2461.253-.1465.253-.3906.253-.7324 0-.3907-.38-.7344-1.2667-1.0762l-.3799-.1465c-.6338-.2441-1.2676-.5879-1.5205-.8808-.3799-.4395-.6338-.832-.6338-1.3204 0-.7343.254-1.3203.8867-1.8086.6338-.3925 1.2676-.6367 2.0274-.6367.6338 0 1.2666.1465 1.9004.586.1816.1132.3515.2265.5068.3418zm0-4.8691l-.8867.2636c0-.3906-.254-.6367-.3799-.832-.2539-.2441-.6338-.293-1.1406-.293-.3799 0-.6338.0489-.7598.2442l-.2539.6367c0 .3906.3799.7324 1.2676 1.0762l.6328.2441c.6338.2442 1.0137.4883 1.5205.8809zm-6.208-.7149h-3.8008l-.3799 1.8594h3.421l-.254 1.3203h-3.4199l-.3799 2.0547h4.1797l-.126 1.4668h-5.954l1.5195-8.0215h5.4472l-.2529 1.3203zm-6.9678-1.3203l-1.2666 8.0215h-1.3935l-2.5342-5.8691-1.1406 5.8691h-1.2666l1.2666-8.0215h1.7744l2.5332 5.332.7607-5.332h1.2666zm-11.5283 6.5547l-.2539 1.4668h-5.3203l1.2666-8.0215h1.9004l-1.2666 6.5547h3.6738zm.3799 1.4668l1.5205-8.0215h1.9004l-1.5205 8.0215h-1.9004zm-6.081-5.7227c0 .588-.253.9786-.5069 1.3692-.3799.4394-.7598.6855-1.2666.832l.8867 3.5215h-1.6474l-.8868-3.2773h-1.6464l-.6338 3.2773h-1.5196l1.2666-8.0215h3.167c.8867 0 1.5205.1953 2.1533.5879.381.3906.6338.9766.6338 1.711zm-2.1534-.832c-.2539-.1465-.6338-.2441-1.0137-.2441h-1.2675l-.5059 2.2988h1.5195c.3809 0 .8868-.0977 1.0137-.3418.254-.246.5068-.4902.5068-.8809 0-.3418 0-.5859-.2529-.832zm-5.3213-1.4668l-1.3935 8.0215h-1.9004l1.3935-8.0215h1.9004zm-6.334 1.5645l-1.3945 3.1797h1.9014l-.5069-3.1797zm1.2666-1.5645l1.2666 8.0215h-1.6464l-.254-1.957h-2.5331l-1.0137 1.957h-1.2666l3.5469-8.0215h1.9003zm-13.4287 4.5l-.6338 3.5215h-1.7734l1.2666-8.0215h1.7734l-.5058 3.1309h2.7861l.38-3.1309h1.9003l-1.3926 8.0215h-1.7744l.5068-3.5215h-2.5332zm-3.8007-4.0605c.6328.3925.7597.7832 1.0136 1.371l-1.5205.4883c-.127-.3906-.3799-.6367-.6338-.832-.126-.2441-.6338-.293-1.0136-.293l-.8868.2442-.126.6367c0 .3906.38.7324 1.2667 1.0762l.6337.2441c.6329.2442 1.2667.4883 1.3926.8809.254.3906.5069.83.5069 1.3203 0 .7324-.253 1.3691-.8868 1.8574-.6328.4902-1.2666.7344-2.2802.7344-.8867 0-1.7735-.2442-2.4073-.6367-.6328-.4395-.7597-.9278-1.0136-1.6621l1.5205-.3907c.127.3907.3799.6348.7607.879.253.246.6328.3437 1.2666.3437.253 0 .6328-.0977.8867-.2461.254-.1465.38-.3906.38-.7324 0-.3907-.38-.7344-1.3936-1.0762l-.5069-.1465c-.6328-.2441-1.2666-.5879-1.3935-.8808-.253-.4395-.5069-.832-.5069-1.3204 0-.7343.254-1.3203.6338-1.8086.6338-.3925 1.2666-.6367 2.1534-.6367.6337 0 1.5205.1465 2.1543.586zm-5.9551.8808h-3.7998l-.3809 1.8594h3.294l-.126 1.3203h-3.421l-.2529 2.0547h4.0538l-.254 1.4668h-5.827l1.3935-8.0215h5.5742l-.254 1.3203zm-7.2207 2.2989c0 .7343-.127 1.4667-.38 2.1035-.2538.6347-.6337 1.125-1.2675 1.5644-.253.2442-.6328.4903-1.0127.539l-1.2676.1954h-3.4199l1.2666-8.0215h2.5332l1.0137.0977.8867.2441c.6338.2461 1.0137.6367 1.2676 1.2227.253.5879.3799 1.2226.3799 2.0547zm-3.5479-2.1524h-.8857l-1.0137 5.0879h1.2666c.6328 0 1.2666-.246 1.6465-.7344.5068-.586.6338-1.3203.6338-2.2011 0-.7325-.127-1.2227-.3799-1.6622-.2539-.2949-.6338-.4902-1.2676-.4902zM99.165 38.46l3.6739-7.5313h1.9004l1.2666 8.0215h-1.7735l-.126-1.957h-2.788l-.8858 1.957h-6.4614l1.393-8.0215h1.774l-1.1402 6.5547h3.421l-.254.9766zm4.3077-5.9668l-1.5206 3.1797h1.9004l-.3798-3.1797zm-37.88-20.296h8.8682c1.5205 0 2.5337.3424 3.1675 1.0762.6333.7334 1.1402 1.5162.8867 2.5918-.2534.8809-.6333 1.6143-1.267 2.2012-.6334.3911-1.2667.7334-1.9004.978 1.0136.2447 1.647.6358 2.1538 1.3203.3803.5381.6333 1.3697.3803 2.25-.2534.734-.3803 1.4673-1.0136 2.0542-.5069.5865-1.1402 1.0757-1.774 1.4673-.3798.2447-1.0131.3911-1.8999.4888l-2.0273.147h-8.235l2.6607-14.5747zm16.4698 0h4.3071l-.5068 2.7877H81.682l.3804-2.7876zm-12.1621 2.9346l-.5068 2.7876h2.1533c.6338 0 1.267-.0976 1.5205-.3418.3799-.245.6333-.6362.6333-1.0761.127-.3911 0-.734-.2534-.9786-.253-.244-.8868-.391-1.52-.391h-2.027zm-1.5205 8.5586h2.2803c.8867 0 1.5205-.1465 1.9003-.4887.2535-.2447.5069-.587.6338-1.0762.253-.3911 0-.7827-.127-1.0269-.2533-.2446-.8866-.4404-1.7734-.4404h-2.5336l-.3804 3.0322zm13.0488-7.4824h4.3076l-2.1538 10.564H79.402l2.0268-10.564zm11.022 15.211c.6333.4394.8867 1.0742 1.0137 1.8085l-1.3936.3418c-.254-.4394-.5068-.7324-.6333-.9785-.254-.2441-.6338-.4394-1.1401-.4394l-.6338.2441-.6333.6856c-.127.293-.38.7343-.38 1.2226l-.2533 1.4668c0 .539.2534 1.0274.5063 1.3691.127.3926.3804.588 1.0137.588.3804 0 .8867-.1954 1.0132-.4903.2534-.2441.5073-.7324.5073-1.3203H89.917l.2534-1.2227h3.167l-.6333 4.2559h-.8872l-.253-.9297c-.1264.3418-.3803.586-.7602.7344-.5063.2441-.8867.3418-1.2666.3418-.8867 0-1.5205-.3418-2.1538-.9785-.6333-.6348-.8867-1.4668-.8867-2.543l.5063-2.0059c.127-.6836.3804-1.2226 1.0137-1.7109l1.0137-.7344c.5068-.2441.8867-.3418 1.52-.3418s1.2666.2442 1.9004.6367zm-6.3345-.4903l-1.5205 8.0215h-1.2666l-2.6602-5.8691-1.14 5.869h-1.2672l1.52-8.0214h1.647l2.4072 5.332.7598-5.332h1.5205zm-10.7685 1.5645l-1.52 3.1797h1.9003l-.3803-3.1797zm-4.4341-1.0743c.3803.3418.6333.8301.6333 1.4668 0 .4883-.253.9297-.38 1.2227-.5067.3418-.8866.586-1.2665.6836.3799.1465.6333.3926.7598.7344.2534.293.5068.7343.5068 1.125 0 .7324-.2534 1.3203-.6333 1.7109-.6333.3926-1.2671.5879-2.4072.5879h-3.8008l1.267-8.0215h3.1676c1.14 0 1.7734.1953 2.1533.4902zm-1.0132 1.711c0-.293-.254-.539-.5068-.6367-.127-.1465-.38-.2442-.7603-.2442h-1.52l-.2534 1.957h1.52c.3804 0 .8867-.0976 1.0137-.3437.2529-.1465.5068-.3906.5068-.7324zM68 35.331h-1.267l-.507 2.2988H68c.3799 0 .7603-.0977 1.0137-.3438.2529-.2441.3799-.4882.3799-.8789 0-.3437-.127-.5879-.38-.7343-.2533-.2442-.3803-.3418-1.0136-.3418zm2.9136 3.619l3.8008-8.0214h1.9003l1.2671 8.0215h-1.6474l-.253-1.957h-2.5341l-1.0132 1.957z" clip-rule="evenodd" fill="#3d7357" fill-rule="evenodd"/><path d="M12.8906 12.2954C15.171 9.899 17.958 8.1382 20.8721 6.818c3.167-1.3208 6.3344-1.9566 9.7549-1.9566 3.2934 0 6.4609.6358 9.6284 1.9566 3.0405 1.3203 5.7007 3.081 8.1079 5.4775 2.2803 2.25 3.9277 4.9395 5.1943 7.9717 1.2666 3.0815 1.9 6.3579 1.9 9.7817 0 3.3252-.6334 6.6026-1.9 9.7803-1.2666 3.0332-2.914 5.625-5.1943 7.9727-2.4072 2.3964-5.0674 4.1582-8.108 5.3789-3.1674 1.3222-6.3349 1.957-9.6283 1.957-3.4205 0-6.588-.6348-9.755-1.957-2.914-1.2207-5.7011-2.9825-7.9814-5.379-2.4072-2.3476-4.0542-4.9394-5.3208-7.9726-1.267-3.1777-1.9004-6.455-1.9004-9.7803 0-3.4238.6333-6.7002 1.9004-9.7817 1.2666-3.0322 2.9136-5.7217 5.3208-7.9717zm23.564 16.9214l2.5337 2.4463c.6338.6836 1.774.6836 2.787 0l5.7013-3.8154-1.5205-1.3692h8.1084L42.0288 35.087c-1.52.83-2.5337.9277-3.4204.1953-1.0137-.7343-1.5205-1.1738-1.5205-1.0761-.7603-1.0762-1.9004-1.2227-3.294-.4903l-7.4746 5.5274H13.0176L25.686 29.706l-18.4965.0981 2.5341-2.4458h23.437c1.2671-.1465 2.2803.4893 3.294 1.8584z" clip-rule="evenodd" fill="#e1241a" fill-rule="evenodd"/><path d="M36.4546 29.2168l2.5337 2.4463c.6338.6836 1.774.6836 2.787 0l5.7013-3.8154-1.5205-1.3692h8.1084L42.0288 35.087c-1.52.83-2.5337.9277-3.4204.1953-1.0137-.7343-1.5205-1.1738-1.5205-1.0761-.7603-1.0762-1.9004-1.2227-3.294-.4903l-7.4746 5.5274H13.0176L25.686 29.706l-18.4965.0981 2.5341-2.4458h23.437c1.2671-.1465 2.2803.4893 3.294 1.8584z" clip-rule="evenodd" fill="#fff" fill-rule="evenodd"/></svg>