<svg width="75" height="25" viewBox="0 0 75 25" fill="none" xmlns="http://www.w3.org/2000/svg">
<path d="M27.2614 0C27.2614 0 35.5528 3.64322 36.6835 9.92462C36.3066 9.29648 35.0503 5.65327 30.7789 7.1608C31.5327 7.1608 35.1759 7.28643 35.9297 11.1809C35.4272 11.9347 35.4272 12.0603 33.5428 13.0653L27.2614 16.206C27.2614 16.206 31.2815 14.4472 32.6634 14.6985C34.0453 14.9497 39.6985 16.3317 43.7186 11.809C43.7186 11.809 44.9749 10.4271 45.3518 10.804C44.9749 10.4271 42.9649 9.17085 41.4573 10.1759C40.8292 9.17085 37.186 1.75879 27.2614 0Z" fill="#0C0CF4"/>
<path d="M18.2161 11.9347C18.2161 11.0553 18.0905 10.3015 17.9648 9.79898C17.7136 9.29647 17.4623 8.91959 16.9598 8.66833C16.4573 8.41707 15.9548 8.29144 15.201 8.16582C14.4472 8.04019 13.5678 8.04019 12.5628 8.04019H7.66332C6.78392 8.04019 5.90452 8.04019 5.27638 8.16582C4.64824 8.16582 4.14573 8.29144 3.64322 8.5427C3.26633 8.66833 2.88945 8.91959 2.63819 9.29647C2.38693 9.67335 2.26131 10.0502 2.13568 10.5528C2.01005 11.0553 2.01005 11.6834 2.01005 12.4372C2.01005 13.1909 2.01005 14.0703 2.01005 15.201C2.01005 16.206 2.01005 17.211 2.01005 17.9648C2.01005 18.7186 2.13568 19.3467 2.13568 19.8492C2.26131 20.3517 2.38693 20.8543 2.63819 21.1055C2.88945 21.4824 3.1407 21.608 3.64322 21.8593C4.0201 21.9849 4.64824 22.1105 5.27638 22.2362C5.90452 22.2362 6.65829 22.3618 7.66332 22.3618H12.5628C13.4422 22.3618 14.0704 22.3618 14.6985 22.2362C15.3266 22.2362 15.8291 22.1105 16.206 21.9849C16.5829 21.8593 16.9598 21.7337 17.2111 21.4824C17.4623 21.2311 17.7136 20.9799 17.8392 20.7286C17.9648 20.4774 18.0905 20.1005 18.0905 19.598C18.0905 19.2211 18.2161 18.593 18.2161 18.0904H20.3518C20.3518 18.8442 20.3518 19.4723 20.2261 19.9749C20.1005 20.603 19.9749 21.1055 19.7236 21.4824C19.4724 21.9849 19.2211 22.3618 18.8442 22.6131C18.4673 22.9899 17.9648 23.2412 17.4623 23.3668C16.8342 23.6181 16.206 23.7437 15.4523 23.8693C14.6985 23.995 13.6935 23.995 12.6884 23.995H7.66332C6.40704 23.995 5.27638 23.8693 4.39699 23.7437C3.51759 23.6181 2.76382 23.3668 2.26131 22.9899C1.63317 22.6131 1.25628 22.2362 0.879397 21.7337C0.628141 21.2311 0.376884 20.7286 0.251256 19.9749C0.125628 19.3467 0 18.593 0 17.7136C0 16.8342 0 15.9548 0 14.9497C0 13.9447 0 13.0653 0 12.1859C0 11.3065 0.125628 10.6784 0.251256 9.92461C0.376884 9.29647 0.628141 8.66833 0.879397 8.16582C1.13065 7.6633 1.63317 7.28642 2.26131 6.90953C2.88945 6.53265 3.51759 6.40702 4.39699 6.15577C5.27638 6.03014 6.40704 5.90451 7.66332 5.90451H12.5628C13.5678 5.90451 14.5729 5.90451 15.3266 6.03014C16.0804 6.15577 16.8342 6.28139 17.3367 6.53265C17.9648 6.78391 18.3417 7.03516 18.7186 7.28642C19.0955 7.53768 19.3467 7.91456 19.598 8.41707C19.8492 8.79396 19.9749 9.29647 20.1005 9.79898C20.2261 10.3015 20.2261 10.9296 20.2261 11.5578H18.2161V11.9347Z" fill="#0C0CF4"/>
<path d="M22.6131 17.3367H21.7337V16.4573H22.6131V17.3367ZM21.7337 18.0904H22.6131V23.2412H21.7337V18.0904Z" fill="#0C0CF4"/>
<path d="M28.8944 20.9799C28.8944 21.4824 28.8944 21.7337 28.7688 22.1106C28.6432 22.3618 28.5176 22.6131 28.3919 22.8643C28.2663 22.99 28.015 23.1156 27.7638 23.2412C27.5125 23.3668 27.1356 23.3668 26.7588 23.3668C26.3819 23.3668 26.005 23.3668 25.7537 23.2412C25.5025 23.2412 25.2512 23.1156 25.1256 22.99C25 22.8643 24.8743 22.6131 24.7487 22.3618C24.6231 22.1106 24.6231 21.8593 24.6231 21.4824V18.8442H23.4924V18.0905H24.6231V16.7086H25.5025V18.0905H28.7688V18.8442H25.5025V21.4824C25.5025 21.7337 25.5025 21.9849 25.6281 22.1106C25.6281 22.2362 25.7537 22.3618 25.8794 22.4875C26.005 22.6131 26.1306 22.6131 26.2563 22.6131C26.3819 22.6131 26.6331 22.6131 26.8844 22.6131C27.01 22.6131 27.2613 22.6131 27.3869 22.6131C27.5125 22.6131 27.6382 22.6131 27.7638 22.6131C27.8894 22.6131 28.015 22.4875 28.015 22.4875C28.1407 22.3618 28.1407 22.3618 28.1407 22.2362C28.1407 22.1106 28.2663 21.9849 28.2663 21.7337C28.2663 21.6081 28.2663 21.3568 28.2663 21.1055H28.8944V20.9799Z" fill="#0C0CF4"/>
<path d="M29.6483 18.0905H30.6533L32.9146 22.7387L35.0503 18.0905H36.0554L33.5428 23.3668L33.4172 23.6181C33.2915 23.7437 33.2915 23.8693 33.1659 23.995C33.0403 24.1206 33.0403 24.2462 32.9146 24.3719C32.789 24.4975 32.6634 24.6231 32.5378 24.6231C32.4121 24.7487 32.2865 24.7487 32.0352 24.8744C31.9096 24.8744 31.6584 25 31.4071 25C31.1559 25 30.9046 25 30.5277 25V24.2462C30.779 24.2462 31.0302 24.2462 31.2815 24.2462C31.5327 24.2462 31.6584 24.2462 31.784 24.1206C31.9096 24.1206 32.0353 23.995 32.1609 23.995C32.2865 23.995 32.2865 23.8693 32.4121 23.7437C32.4121 23.6181 32.5378 23.6181 32.5378 23.4925C32.5378 23.3668 32.6634 23.3668 32.6634 23.2412H32.4121L29.6483 18.0905Z" fill="#0C0CF4"/>
<path d="M39.0704 23.3668V16.4573H45.7287V17.0854H39.9498V19.4724H45.4774V20.2261H39.9498V23.3668H39.0704Z" fill="#0C0CF4"/>
<path d="M47.7387 16.4573H46.8593V23.3668H47.7387V16.4573Z" fill="#0C0CF4"/>
<path d="M48.995 18.0905H50L52.2613 22.7387L54.397 18.0905H55.402L52.7638 23.2412L52.6382 23.4925C52.5126 23.6181 52.5126 23.7437 52.387 23.8693C52.2613 23.995 52.2613 24.1206 52.1357 24.2462C52.0101 24.3719 51.8844 24.4975 51.7588 24.4975C51.6332 24.6231 51.5076 24.6231 51.2563 24.7487C51.1307 24.7487 50.8794 24.8744 50.6282 24.8744C50.3769 24.8744 50.1257 24.8744 49.7488 24.8744V24.1206C50 24.1206 50.2513 24.1206 50.5025 24.1206C50.7538 24.1206 50.8794 24.1206 51.005 23.995C51.1307 23.995 51.2563 23.8693 51.3819 23.8693C51.5076 23.8693 51.5076 23.7437 51.6332 23.6181C51.6332 23.4925 51.7588 23.4925 51.7588 23.3668C51.7588 23.2412 51.8844 23.2412 51.8844 23.1156H51.6332L48.995 18.0905Z" fill="#0C0CF4"/>
<path d="M59.0452 23.4925C58.4171 23.4925 57.9146 23.4925 57.5377 23.3668C57.1608 23.2412 56.7839 23.1156 56.5327 22.99C56.2814 22.7387 56.1558 22.4874 56.0302 22.2362C55.9045 21.8593 55.9045 21.4824 55.9045 20.9799C55.9045 20.3518 55.9045 19.9749 56.0302 19.598C56.1558 19.2211 56.2814 18.9699 56.5327 18.7186C56.7839 18.4673 57.1608 18.3417 57.5377 18.2161C57.9146 18.0905 58.4171 18.0905 59.0452 18.0905C59.4221 18.0905 59.799 18.0905 60.1759 18.2161C60.4272 18.2161 60.6784 18.3417 60.9297 18.4673C61.1809 18.593 61.3066 18.7186 61.4322 18.8442C61.5578 18.9699 61.6834 19.2211 61.8091 19.3467C61.9347 19.4724 61.9347 19.7236 61.9347 19.9749C61.9347 20.2261 61.9347 20.4774 61.9347 20.7286L61.8091 20.9799H56.6583C56.6583 21.3568 56.6583 21.7337 56.7839 21.9849C56.9096 22.2362 57.0352 22.3618 57.1608 22.4874C57.2865 22.6131 57.5377 22.6131 57.9146 22.7387C58.1659 22.7387 58.5427 22.7387 59.0452 22.7387C59.4221 22.7387 59.799 22.7387 60.0503 22.7387C60.3015 22.7387 60.5528 22.7387 60.6784 22.6131C60.804 22.6131 60.9297 22.4874 61.0553 22.3618C61.0553 22.2362 61.1809 22.1106 61.1809 21.9849H62.0603C62.0603 22.2362 62.0603 22.4874 61.9347 22.7387C61.8091 22.99 61.6834 23.1156 61.4322 23.2412C61.1809 23.3668 60.9297 23.4925 60.5528 23.4925C60.0503 23.3668 59.6734 23.4925 59.0452 23.4925ZM59.0452 18.7186C58.794 18.7186 58.5427 18.7186 58.2915 18.7186C58.0402 18.7186 57.9146 18.7186 57.6633 18.8442C57.5377 18.8442 57.2865 18.9699 57.2865 18.9699C57.1608 19.0955 57.0352 19.0955 57.0352 19.2211C56.9096 19.3467 56.9096 19.4724 56.9096 19.598C56.9096 19.7236 56.9096 19.9749 56.9096 20.2261H61.3066C61.3066 19.8492 61.3066 19.598 61.1809 19.3467C61.0553 19.0955 60.9297 18.9699 60.804 18.8442C60.6784 18.7186 60.4272 18.593 60.1759 18.593C59.799 18.7186 59.4221 18.7186 59.0452 18.7186Z" fill="#0C0CF4"/>
<path d="M67.588 19.8492C67.588 19.598 67.588 19.4723 67.588 19.3467C67.588 19.2211 67.4624 19.0955 67.3367 18.9698C67.2111 18.8442 67.0855 18.8442 66.8342 18.8442C66.583 18.8442 66.3317 18.8442 65.8292 18.8442C65.4523 18.8442 65.0754 18.8442 64.8242 18.9698C64.5729 19.0955 64.4473 19.0955 64.196 19.2211C64.0704 19.3467 63.9448 19.4724 63.9448 19.7236C63.9448 19.8492 63.8192 20.1005 63.8192 20.3517V23.6181H62.9398V18.4673H63.8192V18.9698C63.8192 18.8442 63.9448 18.7186 63.9448 18.7186C64.0704 18.593 64.196 18.4673 64.3217 18.3417C64.4473 18.2161 64.6986 18.2161 64.9498 18.0904C65.2011 17.9648 65.5779 17.9648 65.9548 17.9648C66.4573 17.9648 66.8342 17.9648 67.0855 18.0904C67.3367 18.2161 67.588 18.3417 67.7136 18.4673C67.8393 18.593 67.9649 18.8442 68.0905 19.0955C68.0905 19.3467 68.2161 19.598 68.2161 19.8492H67.588Z" fill="#0C0CF4"/>
<path d="M70.8543 20.9799C70.6031 20.9799 70.2262 20.9799 70.1006 20.8543C69.8493 20.8543 69.7237 20.7286 69.598 20.7286C69.4724 20.603 69.3468 20.603 69.2212 20.4774C69.0955 20.3518 69.0955 20.2261 69.0955 20.1005C69.0955 19.9749 69.0955 19.7236 69.0955 19.598C69.0955 19.3467 69.0955 19.0955 69.2212 18.9699C69.3468 18.8442 69.4724 18.593 69.7237 18.4673C69.9749 18.3417 70.3518 18.2161 70.7287 18.2161C71.1056 18.2161 71.6081 18.0905 72.2362 18.0905C72.8644 18.0905 73.2413 18.0905 73.6181 18.2161C73.995 18.2161 74.2463 18.3417 74.4975 18.4673C74.7488 18.593 74.8744 18.7186 75.0001 18.9699C75.0001 18.9699 75.0001 19.2211 75.0001 19.4724H74.1207C74.1207 19.3467 74.1207 19.2211 73.995 19.0955C73.995 18.9699 73.8694 18.9699 73.6181 18.8442C73.4925 18.8442 73.2413 18.7186 72.99 18.7186C72.7387 18.7186 72.3619 18.7186 71.985 18.7186C71.6081 18.7186 71.2312 18.7186 70.8543 18.7186C70.6031 18.7186 70.3518 18.7186 70.1006 18.8442C69.9749 18.8442 69.8493 18.9699 69.7237 19.0955C69.598 19.2211 69.598 19.3467 69.598 19.4724C69.598 19.598 69.598 19.7236 69.598 19.7236C69.598 19.8492 69.598 19.8492 69.7237 19.9749C69.7237 20.1005 69.8493 20.1005 69.9749 20.1005C70.1006 20.1005 70.2262 20.1005 70.3518 20.2261C70.4774 20.2261 70.7287 20.2261 70.9799 20.2261C71.2312 20.2261 71.4825 20.2261 71.8593 20.2261C72.2362 20.2261 72.6131 20.2261 72.99 20.2261C73.2413 20.2261 73.6181 20.2261 73.7438 20.3518C73.995 20.3518 74.1207 20.4774 74.2463 20.603C74.3719 20.7286 74.4975 20.8543 74.6232 20.8543C74.7488 20.9799 74.7488 21.1055 74.7488 21.2312C74.7488 21.3568 74.7488 21.608 74.7488 21.7337C74.7488 21.9849 74.7488 22.1106 74.7488 22.2362C74.7488 22.3618 74.6232 22.4874 74.4975 22.6131C74.3719 22.7387 74.2463 22.8643 74.1207 22.8643C73.995 22.99 73.7438 22.99 73.4925 23.1156C73.2413 23.1156 72.99 23.2412 72.6131 23.2412C72.2362 23.2412 71.8593 23.2412 71.4825 23.2412C70.98 23.2412 70.4774 23.2412 70.1006 23.1156C69.7237 23.1156 69.4724 22.99 69.2212 22.8643C68.9699 22.7387 68.8443 22.6131 68.7186 22.3618C68.593 22.1106 68.593 21.9849 68.593 21.608H69.4724C69.4724 21.7337 69.4724 21.9849 69.598 22.1106C69.598 22.2362 69.7237 22.3618 69.9749 22.3618C70.1006 22.4874 70.3518 22.4874 70.6031 22.4874C70.8543 22.4874 71.2312 22.4874 71.6081 22.4874C71.985 22.4874 72.2362 22.4874 72.4875 22.4874C72.7387 22.4874 72.99 22.4874 73.1156 22.3618C73.2413 22.3618 73.3669 22.2362 73.4925 22.2362C73.6181 22.2362 73.6181 22.1106 73.7438 22.1106C73.7438 21.9849 73.8694 21.9849 73.8694 21.8593C73.8694 21.7337 73.8694 21.7337 73.8694 21.608C73.8694 21.4824 73.8694 21.4824 73.8694 21.3568C73.8694 21.2312 73.8694 21.2312 73.7438 21.1055C73.7438 20.9799 73.6181 20.9799 73.4925 20.9799C73.3669 20.9799 73.2413 20.8543 73.1156 20.8543C72.99 20.8543 72.7387 20.8543 72.4875 20.8543C72.2362 20.8543 71.985 20.8543 71.6081 20.8543C71.6081 20.9799 71.2312 20.9799 70.8543 20.9799Z" fill="#0C0CF4"/>
</svg>
